<svg xmlns="http://www.w3.org/2000/svg" viewBox="0 0 256 256">
  <defs>
    <linearGradient id="bg" x1="32" y1="24" x2="224" y2="232" gradientUnits="userSpaceOnUse">
      <stop offset="0%" stop-color="#153A63"/>
      <stop offset="100%" stop-color="#0E2E50"/>
    </linearGradient>
  </defs>

  <rect x="12" y="12" width="232" height="232" rx="56" fill="url(#bg)"/>
  <path d="M88 92h80c15 0 28 12 28 27v31c0 15-13 27-28 27h-34l-18 15v-15H88c-15 0-28-12-28-27v-31c0-15 13-27 28-27z" fill="#F8FBFF" stroke="#D3E4F4" stroke-width="6" stroke-linejoin="round"/>
  <rect x="88" y="116" width="64" height="12" rx="6" fill="#153A63"/>
  <rect x="88" y="140" width="80" height="12" rx="6" fill="#153A63" fill-opacity="0.78"/>
  <path d="M176 86l5 11 11 5-11 5-5 11-5-11-11-5 11-5 5-11z" fill="#E7F1FB"/>
</svg>
