<svg xmlns="http://www.w3.org/2000/svg" viewBox="0 0 256 256">
  <defs>
    <linearGradient id="bg" x1="0" y1="0" x2="1" y2="1">
      <stop offset="0%" stop-color="#1D4ED8"/>
      <stop offset="100%" stop-color="#0F172A"/>
    </linearGradient>
  </defs>
  <rect x="12" y="12" width="232" height="232" rx="56" fill="url(#bg)"/>
  <path d="M82 70h54c34 0 56 18 56 44 0 17-10 30-25 35 18 5 30 18 30 37 0 30-25 48-63 48H82V70zm48 63c14 0 23-6 23-17 0-11-9-17-23-17h-12v34h12zm5 72c17 0 27-7 27-20 0-13-10-20-27-20h-17v40h17z" fill="#E0F2FE"/>
</svg>
